<svg height="512pt" viewBox="-42 0 512 512" width="512pt" xmlns="http://www.w3.org/2000/svg"><path d="m152.992188 337.800781-86.253907 23.957031c-34.964843 9.714844-59.164062 41.550782-59.164062 77.84375v64.824219h412.023437v-64.824219c0-36.292968-24.199218-68.128906-59.164062-77.84375l-86.253906-23.957031zm0 0" fill="#ddf5ff"/><path d="m232.773438 410.507812 12.117187 60.59375-31.304687 33.324219-31.304688-33.324219 12.117188-60.59375zm0 0" fill="#ff6969"/><path d="m244.890625 471.101562-12.117187-60.59375h-19.1875l15.367187 77.5625c7.964844-8.480468 15.9375-16.96875 15.9375-16.96875zm0 0" fill="#ea4747"/><path d="m360.433594 361.757812-56.996094-15.832031-30.269531 95.886719-59.582031 62.613281h206.011718v-64.824219c0-36.292968-24.199218-68.128906-59.164062-77.84375zm0 0" fill="#636363"/><path d="m360.433594 361.757812-6.535156-1.816406c17.554687 15 28.335937 37.21875 28.335937 61.433594v83.050781h37.363281v-64.824219c0-36.292968-24.199218-68.128906-59.164062-77.84375zm0 0" fill="#494949"/><path d="m66.738281 361.757812 56.996094-15.832031 30.269531 95.886719 59.582032 62.613281h-206.011719v-64.824219c0-36.292968 24.199219-68.128906 59.164062-77.84375zm0 0" fill="#636363"/><path d="m249.941406 312.550781-36.355468 36.355469-36.355469-36.355469v-57.5625h72.710937zm0 0" fill="#f9b3a7"/><path d="m308.511719 111.589844h26.257812v40.394531h-26.257812zm0 0" fill="#ffd664"/><path d="m334.769531 111.589844v-104.015625h-242.367187v104.015625zm0 0" fill="#636363"/><path d="m315.582031 7.574219v63.621093c0 11.15625-9.042969 20.195313-20.195312 20.195313h-202.984375v20.199219h242.367187v-104.015625zm0 0" fill="#494949"/><path d="m92.402344 111.589844h26.257812v40.394531h-26.257812zm0 0" fill="#ffd664"/><path d="m213.585938 111.589844h-94.925782v72.710937c0 52.425781 42.5 94.925781 94.925782 94.925781 52.425781 0 94.925781-42.5 94.925781-94.925781v-72.710937zm0 0" fill="#feccc1"/><path d="m280.238281 111.589844v72.710937c0 47.621094-35.070312 87.050781-80.789062 93.878907 4.613281.6875 9.332031 1.046874 14.136719 1.046874 52.425781 0 94.925781-42.5 94.925781-94.925781v-72.710937zm0 0" fill="#f9b3a7"/><path d="m103.511719 199.449219h20.195312v-54.535157h-20.195312c-11.15625 0-20.199219 9.042969-20.199219 20.199219v14.136719c0 11.15625 9.042969 20.199219 20.199219 20.199219zm0 0" fill="#feccc1"/><path d="m323.660156 199.449219h-20.195312v-54.535157h20.195312c11.15625 0 20.199219 9.042969 20.199219 20.199219v14.136719c0 11.15625-9.042969 20.199219-20.199219 20.199219zm0 0" fill="#f9b3a7"/><path d="m402.429688 113.609375c0 10.039063-8.136719 18.175781-18.175782 18.175781-10.039062 0-18.179687-8.136718-18.179687-18.175781s8.140625-18.179687 18.179687-18.179687c10.039063 0 18.175782 8.140624 18.175782 18.179687zm0 0" fill="#ffd664"/><path d="m213.585938 410.507812h19.1875l19.691406-22.722656-38.878906-38.878906-38.878907 38.878906 19.691407 22.722656zm0 0" fill="#ff6969"/><path d="m213.585938 348.90625-11.867188 11.867188 20.367188 20.363281c3.746093 3.746093 3.960937 9.753906.488281 13.757812l-13.53125 15.613281h23.730469l19.691406-22.722656zm0 0" fill="#ea4747"/><path d="m174.707031 387.785156 38.878907-38.878906-36.355469-36.355469-24.742188 24.742188zm0 0" fill="#c1e9f4"/><path d="m252.464844 387.785156-38.878906-38.878906 36.355468-36.355469 24.742188 24.742188zm0 0" fill="#c1e9f4"/><path d="m419.597656 451.914062c4.183594 0 7.574219-3.390624 7.574219-7.574218v-4.738282c0-39.550781-26.613281-74.5625-64.714844-85.136718l-82.933593-23.042969-22.007813-22.007813v-32.519531c27.980469-13.328125 49.007813-38.96875 56.03125-69.875h10.113281c15.3125 0 27.773438-12.457031 27.773438-27.769531v-14.140625c0-8.125-3.507813-15.445313-9.089844-20.527344v-129.433593h34.335938v73.847656c-10.515626 3.242187-18.179688 13.050781-18.179688 24.613281s7.664062 21.371094 18.179688 24.613281v18.808594c0 4.183594 3.390624 7.574219 7.574218 7.574219 4.179688 0 7.570313-3.390625 7.570313-7.574219v-18.808594c10.515625-3.242187 18.179687-13.050781 18.179687-24.613281s-7.664062-21.371094-18.179687-24.613281v-73.847656h7.574219c4.183593 0 7.574218-3.390626 7.574218-7.574219 0-4.183594-3.386718-7.574219-7.570312-7.574219h-371.632813c-4.179687 0-7.574219 3.390625-7.574219 7.574219 0 4.183593 3.394532 7.574219 7.574219 7.574219h57.058594v15.191406c0 4.179687 3.390625 7.570312 7.574219 7.570312s7.574218-3.390625 7.574218-7.570312v-15.191406h227.21875v88.867187h-227.21875v-38.3125c0-4.183594-3.390624-7.574219-7.574218-7.574219s-7.574219 3.390625-7.574219 7.574219v78.878906c-5.582031 5.082031-9.089844 12.40625-9.089844 20.53125v14.136719c0 15.3125 12.460938 27.773438 27.773438 27.773438h10.117187c7.019532 30.90625 28.046875 56.546874 56.027344 69.875v32.515624l-22.007812 22.011719-82.933594 23.039063c-38.101563 10.574218-64.714844 45.585937-64.714844 85.140625v4.734375c0 4.183594 3.390625 7.574218 7.574219 7.574218 4.183593 0 7.574219-3.390624 7.574219-7.574218v-4.734375c0-32.773438 22.046874-61.78125 53.621093-70.542969l49.945313-13.875 28.066406 88.910156c.347656 1.097656.941406 2.105469 1.734375 2.941406l47.40625 49.816407h-104.023437v-23.734375c0-4.183594-3.390626-7.574219-7.574219-7.574219-4.183594 0-7.574219 3.390625-7.574219 7.574219v23.730468h-61.601562v-17.230468c0-4.183594-3.390626-7.574219-7.574219-7.574219-4.183594 0-7.574219 3.390625-7.574219 7.574219v24.804687c0 4.183594 3.390625 7.574219 7.574219 7.574219h412.023437c4.183594 0 7.574219-3.390625 7.574219-7.574219v-24.804687c0-4.183594-3.390625-7.574219-7.574219-7.574219s-7.574218 3.390625-7.574218 7.574219v17.230468h-61.601563v-23.730468c0-4.183594-3.390625-7.574219-7.574219-7.574219s-7.574218 3.390625-7.574218 7.574219v23.730468h-104.023438l47.40625-49.816406c.792969-.835937 1.386719-1.839844 1.734375-2.941406l28.066406-88.910156 49.949219 13.878906c31.570312 8.757812 53.617188 37.765625 53.617188 70.539062v4.738282c0 4.183594 3.390624 7.574218 7.574218 7.574218zm-35.34375-327.699218c-5.847656 0-10.605468-4.757813-10.605468-10.605469s4.757812-10.605469 10.605468-10.605469 10.601563 4.757813 10.601563 10.605469-4.757813 10.605469-10.601563 10.605469zm-183.644531 293.867187h25.953125l10.203125 51-23.179687 24.355469-23.179688-24.355469zm28.707031-15.148437h-31.460937l-12.808594-14.777344 28.539063-28.539062 28.535156 28.539062zm20.675782-28.332032-25.695313-25.695312 25.644531-25.640625 15.722656 15.71875zm86.292968-195.351562c0 6.960938-5.664062 12.621094-12.625 12.621094h-7.574218v-39.382813h7.574218c6.960938 0 12.625 5.664063 12.625 12.625zm-9.089844-41.675781c-1.160156-.148438-2.335937-.234375-3.535156-.234375h-7.574218v-18.175782h11.109374zm-227.21875-18.410157h11.109376v18.179688h-7.574219c-1.199219 0-2.375.082031-3.535157.230469zm11.109376 72.710938h-7.574219c-6.960938 0-12.625-5.664062-12.625-12.625v-14.136719c0-6.960937 5.664062-12.625 12.625-12.625h7.574219zm15.148437-7.574219v-65.136719h174.703125v65.136719c0 48.167969-39.183594 87.351563-87.351562 87.351563-48.167969 0-87.351563-39.1875-87.351563-87.351563zm87.351563 102.5c9.988281 0 19.644531-1.441406 28.78125-4.117187v26.730468l-28.78125 28.78125-28.78125-28.78125v-26.734374c9.136718 2.679687 18.792968 4.121093 28.78125 4.121093zm-36.355469 36.460938 25.644531 25.644531-25.695312 25.695312-15.671876-35.617187zm-43.910157 27.863281 15.128907-4.203125 19.300781 43.863281c.121094.277344.261719.550782.417969.816406.039062.070313.085937.136719.128906.207032.105469.167968.21875.332031.339844.496094.0625.085937.128906.167968.195312.25.050781.0625.097657.128906.152344.191406l17.257813 19.917968-8.597657 43.003907-16.945312-17.804688zm133.152344 86.738281-16.945312 17.804688-8.597656-43.003907 17.257812-19.917968c.054688-.0625.101562-.128906.152344-.191406.066406-.082032.132812-.167969.199218-.253907.117188-.160156.230469-.324219.335938-.492187.042969-.070313.089844-.136719.132812-.210938.152344-.265625.292969-.535156.414063-.8125l19.300781-43.863281 15.128906 4.203125zm0 0"/></svg>